Coordinates
version=1
nRows=21
nColumns=34
inDegrees=yes

Units are S.I. units (second, meters, Newtons, ...)
If the header above contains a line with 'inDegrees', this indicates whether rotational values are in degrees (yes) or radians (no).

endheader
time	pelvis_tilt	pelvis_list	pelvis_rotation	pelvis_tx	pelvis_ty	pelvis_tz	hip_flexion_r	hip_adduction_r	hip_rotation_r	knee_angle_r	ankle_angle_r	subtalar_angle_r	mtp_angle_r	hip_flexion_l	hip_adduction_l	hip_rotation_l	knee_angle_l	ankle_angle_l	subtalar_angle_l	mtp_angle_l	lumbar_extension	lumbar_bending	lumbar_rotation	arm_flex_r	arm_add_r	arm_rot_r	elbow_flex_r	pro_sup_r	arm_flex_l	arm_add_l	arm_rot_l	elbow_flex_l	pro_sup_l
7.633333	1.351638	1.342810	2.954133	0.904612	0.927223	-0.082862	-0.616784	-4.097935	-26.345305	-0.000001	5.496783	1.668147	0.000000	-0.313508	-1.960737	-24.157364	-0.000001	4.418452	7.471308	0.000000	-6.025043	0.088292	-1.059488	9.272605	-8.339045	23.017420	29.849804	76.545152	8.172755	-6.027180	18.765316	24.894117	75.169944
7.650000	1.351018	1.319751	2.971489	0.904339	0.926489	-0.082883	-0.601497	-4.079963	-26.309538	-0.000001	5.558306	1.677264	0.000000	-0.279966	-1.988613	-24.151727	-0.000001	4.455910	7.465840	0.000000	-6.047196	0.107685	-1.047093	9.224837	-8.345333	23.026878	29.809472	76.542484	8.179080	-6.028649	18.778627	24.904599	75.168405
7.666667	1.349873	1.291656	2.993425	0.904016	0.926285	-0.082950	-0.589981	-4.055707	-26.266980	-0.000001	5.646540	1.675461	0.000000	-0.248644	-2.022633	-24.124043	0.000001	4.517731	7.466000	0.000000	-6.058310	0.126967	-1.037474	9.179273	-8.356235	23.034308	29.774989	76.540481	8.198414	-6.036471	18.786992	24.920147	75.167140
7.683333	1.345543	1.263171	3.011103	0.903706	0.926575	-0.083068	-0.576802	-4.031076	-26.222684	-0.000000	5.743431	1.665347	0.000000	-0.218278	-2.055023	-24.085695	0.000004	4.587782	7.467138	0.000000	-6.057290	0.145182	-1.027186	9.142209	-8.368514	23.042160	29.746495	76.538122	8.227617	-6.048841	18.797031	24.943309	75.166072
7.700000	1.333910	1.241041	3.016304	0.903458	0.927191	-0.083219	-0.555189	-4.014590	-26.181692	0.000001	5.825516	1.646022	0.000000	-0.186634	-2.075594	-24.046935	0.000008	4.647502	7.463395	0.000000	-6.042825	0.160099	-1.013218	9.120149	-8.380102	23.054717	29.725374	76.533658	8.261073	-6.066016	18.819753	24.979382	75.165174
7.716667	1.307369	1.229838	3.003873	0.903306	0.927861	-0.083364	-0.515193	-4.011775	-26.142238	0.000004	5.875591	1.610657	0.000000	-0.147491	-2.077449	-24.012604	0.000015	4.684863	7.446464	0.000000	-6.010188	0.168304	-0.991318	9.117398	-8.391667	23.079843	29.711543	76.523903	8.296120	-6.093343	18.873711	25.041454	75.164245
7.733333	1.255552	1.229596	2.973745	0.903274	0.928298	-0.083460	-0.445072	-4.022220	-26.093675	0.000008	5.887773	1.547480	0.000000	-0.090300	-2.060372	-23.981441	0.000020	4.698145	7.405959	0.000000	-5.951473	0.165395	-0.955819	9.134533	-8.406687	23.128493	29.702308	76.504421	8.334026	-6.141241	18.983522	25.149482	75.162809
7.750000	1.170346	1.236525	2.931169	0.903348	0.928386	-0.083475	-0.336783	-4.040598	-26.022061	0.000014	5.864250	1.445786	0.000000	-0.004791	-2.030424	-23.949505	0.000020	4.693093	7.333030	0.000000	-5.860243	0.146644	-0.902288	9.169656	-8.429499	23.210120	29.694297	76.471279	8.377347	-6.220784	19.169846	25.320523	75.160233
7.766667	1.053917	1.244985	2.884457	0.903446	0.928241	-0.083396	-0.193463	-4.059149	-25.920491	0.000017	5.813463	1.306869	0.000000	0.110435	-1.997406	-23.913873	0.000007	4.680171	7.228183	0.000000	-5.740244	0.110352	-0.832441	9.222283	-8.462302	23.323592	29.686792	76.424491	8.431014	-6.336029	19.429476	25.552203	75.155995
7.783333	0.923946	1.249473	2.841042	0.903441	0.928056	-0.083242	-0.033509	-4.070157	-25.796755	0.000015	5.750592	1.151419	0.000000	0.241572	-1.971385	-23.874178	-0.000030	4.673239	7.107408	0.000000	-5.612834	0.062013	-0.757394	9.297357	-8.503035	23.450240	29.684597	76.370722	8.506399	-6.477845	19.719546	25.811508	75.149851
7.800000	0.805373	1.245870	2.804323	0.903234	0.927912	-0.083040	0.119040	-4.067623	-25.665329	-0.000000	5.692402	1.005439	0.000000	0.367771	-1.959841	-23.830484	-0.000098	4.686175	6.993103	0.000000	-5.511165	0.012813	-0.692057	9.404996	-8.547761	23.563482	29.698259	76.319801	8.620861	-6.629434	19.977279	26.052781	75.141364
7.816667	0.713142	1.231901	2.772539	0.902759	0.927766	-0.082789	0.253006	-4.048006	-25.528635	-0.000037	5.647015	0.871332	0.000000	0.479012	-1.966403	-23.779228	-0.000201	4.727702	6.894074	0.000000	-5.462737	-0.027418	-0.643896	9.557869	-8.596611	23.650289	29.742550	76.276575	8.793832	-6.781665	20.165748	26.255943	75.128878
7.833333	0.646219	1.207227	2.741075	0.901960	0.927535	-0.082465	0.375243	-4.010241	-25.371019	-0.000103	5.609152	0.717734	0.000000	0.581276	-1.991088	-23.712736	-0.000318	4.797736	6.798173	0.000000	-5.478960	-0.055130	-0.609640	9.768695	-8.656346	23.719552	29.835246	76.237466	9.042923	-6.939502	20.292636	26.440110	75.109041
7.850000	0.595523	1.173420	2.707595	0.900835	0.927187	-0.082062	0.499359	-3.955694	-25.170587	-0.000195	5.564123	0.497055	0.000000	0.686775	-2.031224	-23.623779	-0.000393	4.885908	6.682972	0.000000	-5.556792	-0.072768	-0.581568	10.044846	-8.736785	23.792269	29.993966	76.194148	9.377304	-7.113553	20.391602	26.643661	75.077718
7.866667	0.550679	1.133415	2.675042	0.899481	0.926756	-0.081605	0.636506	-3.887962	-24.914584	-0.000290	5.496351	0.173180	0.000000	0.806850	-2.082664	-23.510542	-0.000318	4.974398	6.531090	0.000000	-5.684162	-0.085610	-0.554188	10.385175	-8.844884	23.887289	30.229473	76.139037	9.795147	-7.310846	20.496574	26.899150	75.031960
7.883333	0.499768	1.089997	2.650248	0.898016	0.926296	-0.081133	0.796167	-3.811584	-24.612561	-0.000331	5.401005	-0.248637	0.000000	0.953291	-2.141489	-23.379590	0.000071	5.047180	6.344490	0.000000	-5.844183	-0.098215	-0.528047	10.786348	-8.979317	24.007742	30.535667	76.070190	10.292928	-7.531927	20.621527	27.215577	74.972773
7.900000	0.429048	1.044654	2.641158	0.896473	0.925849	-0.080688	0.988148	-3.730892	-24.302969	-0.000214	5.292096	-0.705291	0.000000	1.139232	-2.204833	-23.246194	0.000966	5.097447	6.151415	0.000000	-6.015886	-0.112838	-0.511222	11.250312	-9.128128	24.133334	30.883139	75.994238	10.874350	-7.769221	20.750504	27.570646	74.907144
7.916667	0.327779	0.998000	2.655057	0.894818	0.925467	-0.080328	1.219080	-3.650071	-24.034863	0.000209	5.192778	-1.109930	0.000000	1.374485	-2.269902	-23.126254	0.002504	5.124082	5.989014	0.000000	-6.178769	-0.129960	-0.516451	11.783849	-9.275195	24.232806	31.234365	75.922745	11.548120	-8.009022	20.851305	27.926183	74.844892
7.933333	0.193693	0.950715	2.697291	0.893039	0.925206	-0.080096	1.487931	-3.573172	-23.832632	0.001097	5.113016	-1.419175	0.000000	1.660300	-2.333072	-23.022416	0.004592	5.121887	5.870253	0.000000	-6.324273	-0.149281	-0.554882	12.394228	-9.412027	24.290153	31.573889	75.863696	12.321955	-8.240263	20.903683	28.258010	74.791319
7.950000	0.033116	0.903792	2.769775	0.891158	0.925114	-0.079984	1.786665	-3.503128	-23.684091	0.002530	5.039018	-1.658801	0.000000	1.989120	-2.390664	-22.919467	0.006649	5.076107	5.770671	0.000000	-6.460199	-0.170650	-0.632087	13.087392	-9.541521	24.315869	31.918388	75.817654	13.200784	-8.460700	20.910555	28.566524	74.743597
7.966667	-0.143336	0.858293	2.869627	0.889169	0.925243	-0.079923	2.105096	-3.440833	-23.557587	0.004350	4.939509	-1.895993	0.000000	2.348590	-2.440040	-22.791937	0.007287	4.964047	5.640910	0.000000	-6.604279	-0.194782	-0.747611	13.869832	-9.672603	24.337617	32.300926	75.780540	14.188533	-8.674893	20.887669	28.864252	74.692935
